<svg id="Capa_1" enable-background="new 0 0 496.511 496.511" height="512" viewBox="0 0 496.511 496.511" width="512" xmlns="http://www.w3.org/2000/svg"><g><g id="XMLID_85_"><path d="m136.725 179.715v16.296l19.27 288.56c.45 6.72 6.17 11.94 13.08 11.94h158.36c6.91 0 12.63-5.22 13.08-11.94l19.27-288.56v-16.296z" fill="#ede9e8"/><path d="m136.725 179.715v16.296l19.27 288.56c.45 6.72 6.17 11.94 13.08 11.94h158.36c6.91 0 12.63-5.22 13.08-11.94l19.27-288.56v-16.296z" fill="#ede9e8"/><path d="m215.862 484.571-19.27-288.56v-16.296h-59.867v16.296l19.27 288.56c.45 6.72 6.17 11.94 13.08 11.94h59.867c-6.91 0-12.63-5.22-13.08-11.94z" fill="#ddd6d4"/><path d="m357.285 14.691-7.86-12.05c-1.79-2.75-5.49-3.47-8.18-1.6l-84.09 60.58c-3.16 2.06-5.27 5.39-5.78 9.13l-8.91 65.26-8.12 59.5-24.97 182.87.15.54-3.218 18.107 24.339 1.901 5.389-23.648 24.55-179.77 8.12-59.5 7.63-55.85 79.41-57.54c2.57-1.79 3.25-5.3 1.54-7.93z" fill="#fed52e"/><path d="m221.221 398.193 2.292-12.896-.15-.54 24.97-182.87 8.12-59.5 8.91-65.26c.51-3.74 2.62-7.07 5.78-9.13l82.258-59.26-3.976-6.096c-1.79-2.75-5.49-3.47-8.18-1.6l-84.09 60.58c-3.16 2.06-5.27 5.39-5.78 9.13l-8.91 65.26-8.12 59.5-24.97 182.87.15.54-3.218 18.107z" fill="#fcb21f"/><g><path d="m321.84 270.021c2.676 0 4.794 2.264 4.615 4.934l-12.67 189.596c-.15 2.23-2 3.96-4.23 3.96h-122.6c-2.23 0-4.08-1.73-4.23-3.96l-12.67-189.596c-.178-2.67 1.939-4.934 4.615-4.934z" fill="#fee2bc"/></g><g><path d="m321.84 270.021c2.676 0 4.794 2.264 4.615 4.934l-12.67 189.596c-.15 2.23-2 3.96-4.23 3.96h-122.6c-2.23 0-4.08-1.73-4.23-3.96l-12.67-189.596c-.178-2.67 1.939-4.934 4.615-4.934z" fill="#fee2bc"/></g><path d="m225.225 464.551-12.67-189.596c-.178-2.67 1.939-4.934 4.615-4.934h-42.5c-2.676 0-4.794 2.264-4.615 4.934l12.67 189.596c.15 2.23 2 3.96 4.23 3.96h42.5c-2.23 0-4.08-1.73-4.23-3.96z" fill="#f2d1aa"/><path d="m224.171 270.021-14.796 108.36.15.54-3.218 18.107 24.339 1.901 5.389-23.648 14.375-105.26z" fill="#f5ab71"/><g><path d="m322.635 332.181-3.01 44.99-.2-.01-13.21 4.03c-7.08 2.16-14.4 3.24-21.71 3.24-8.73 0-17.45-1.54-25.75-4.6-14.63-5.41-30.59-6.08-45.62-1.91l-35.34 9.8-.2.01-2.89-43.15 38.43-10.66c15.03-4.17 30.99-3.5 45.62 1.91 8.3 3.06 17.02 4.6 25.75 4.6 7.31 0 14.63-1.08 21.71-3.24l16.41-5.01z" fill="#f5ab71"/></g><path d="m213.135 333.921-38.427 10.659 1.196 17.9 1.691 25.251.2-.01 35.34-9.8c2.053-.569 4.124-1.04 6.205-1.429l-2.9-43.398c-1.105.252-2.208.522-3.305.827z" fill="#ef9659"/><path d="m215.53 333.307-6.155 45.074.15.54v.001l3.61-1.001c7.495-2.08 15.222-2.954 22.9-2.639v-.001l5.942-43.514c-8.797-1.073-17.755-.563-26.447 1.54z" fill="#b2511b"/><path d="m354.395 143.111c-1.18-4.2-5.01-7.1-9.38-7.1h-193.52c-4.37 0-8.2 2.9-9.38 7.1l-6.86 24.4v12.204h226v-12.204z" fill="#89bfcc"/><path d="m201.982 143.111c1.18-4.2 5.01-7.1 9.38-7.1h-59.867c-4.37 0-8.2 2.9-9.38 7.1l-6.86 24.4v12.204h59.867v-12.204z" fill="#7bb5bf"/><path d="m319.625 377.171-5.84 87.38c-.15 2.23-2 3.96-4.23 3.96h-122.6c-2.23 0-4.08-1.73-4.23-3.96l-5.13-76.82.2-.01 35.34-9.8c15.03-4.17 30.99-3.5 45.62 1.91 8.3 3.06 17.02 4.6 25.75 4.6 7.31 0 14.63-1.08 21.71-3.24l13.21-4.03z" fill="#a04415"/><path d="m225.225 464.551-5.885-88.059c-2.082.389-4.153.86-6.205 1.429l-35.34 9.8-.2.01 5.13 76.82c.094 1.394.852 2.592 1.951 3.295.66.422 1.443.665 2.279.665h42.5c-2.23 0-4.08-1.73-4.23-3.96z" fill="#99380e"/><g fill="#5e2102"><circle cx="232.255" cy="417.511" r="16"/><circle cx="280.255" cy="452.511" r="16"/><circle cx="264.255" cy="417.511" r="16"/><circle cx="248.255" cy="452.511" r="16"/><circle cx="216.255" cy="452.511" r="16"/></g><g fill="#4f1901"><path d="m245.755 425.648c-8.84 0-16-7.16-16-16 0-2.97.823-5.741 2.232-8.124-8.715.145-15.731 7.237-15.731 15.986 0 8.84 7.16 16 16 16 5.87 0 10.984-3.167 13.768-7.876-.091.002-.178.014-.269.014z"/><path d="m293.755 460.648c-8.84 0-16-7.16-16-16 0-2.97.823-5.741 2.232-8.124-8.715.145-15.731 7.237-15.731 15.986 0 8.84 7.16 16 16 16 5.87 0 10.984-3.167 13.768-7.876-.091.002-.178.014-.269.014z"/><path d="m277.755 425.648c-8.84 0-16-7.16-16-16 0-2.97.823-5.741 2.232-8.124-8.715.145-15.731 7.237-15.731 15.986 0 8.84 7.16 16 16 16 5.87 0 10.984-3.167 13.768-7.876-.091.002-.178.014-.269.014z"/><path d="m261.755 460.648c-8.84 0-16-7.16-16-16 0-2.97.823-5.741 2.232-8.124-8.715.145-15.731 7.237-15.731 15.986 0 8.84 7.16 16 16 16 5.87 0 10.984-3.167 13.768-7.876-.091.002-.178.014-.269.014z"/><path d="m229.755 460.648c-8.84 0-16-7.16-16-16 0-2.97.823-5.741 2.232-8.124-8.715.145-15.731 7.237-15.731 15.986 0 8.84 7.16 16 16 16 5.87 0 10.984-3.167 13.768-7.876-.091.002-.178.014-.269.014z"/></g></g><g id="XMLID_88_"><g><path d="m375.255 174.271v14.48c0 3.73-3.03 6.76-6.76 6.76h-240.48c-3.73 0-6.76-3.03-6.76-6.76v-14.48c0-3.73 3.03-6.76 6.76-6.76h240.48c3.73 0 6.76 3.03 6.76 6.76z" fill="#b0d4df"/></g></g><path d="m181.122 188.751v-14.48c0-3.73 3.03-6.76 6.76-6.76h-59.867c-3.73 0-6.76 3.03-6.76 6.76v14.48c0 3.73 3.03 6.76 6.76 6.76h59.867c-3.73 0-6.76-3.03-6.76-6.76z" fill="#9fc3cc"/><g><path d="m269.26 322.011c-2.2 0-4.38-.963-5.861-2.815-2.587-3.234-2.063-7.954 1.171-10.542l5-4c3.233-2.588 7.953-2.064 10.542 1.171 2.587 3.234 2.063 7.954-1.171 10.542l-5 4c-1.383 1.107-3.038 1.644-4.681 1.644z" fill="#f5ab71"/></g><g><path d="m293.255 302.011c-1.919 0-3.839-.732-5.303-2.197l-5-5c-2.929-2.929-2.929-7.678 0-10.606 2.929-2.929 7.678-2.929 10.606 0l5 5c2.929 2.929 2.929 7.678 0 10.606-1.464 1.464-3.383 2.197-5.303 2.197z" fill="#f5ab71"/></g><g><path d="m193.249 313.012c-3.438 0-6.538-2.379-7.314-5.875l-2-9c-.898-4.043 1.651-8.05 5.694-8.948 4.047-.901 8.05 1.651 8.948 5.694l2 9c.898 4.043-1.651 8.05-5.694 8.948-.549.123-1.096.181-1.634.181z" fill="#f5ab71"/></g></g></svg>