<svg id="Capa_1" enable-background="new 0 0 512 512" height="512" viewBox="0 0 512 512" width="512" xmlns="http://www.w3.org/2000/svg"><g><path d="m332.157 291.956c-25.389 0-25.389 6.343-50.778 6.343-25.385 0-25.385-6.343-50.771-6.343s-25.386 6.343-50.773 6.343c-14.133 0-20.397-1.966-27.555-3.709l5.869 162.475c.417 11.545 9.897 20.689 21.45 20.689h152.791c11.553 0 21.033-9.144 21.45-20.689l5.831-161.41c-7.139-1.741-13.408-3.699-27.514-3.699z" fill="#eab14d"/><path d="m332.157 291.956c-5.328 0-9.538.279-13.099.721l-2.413 66.785c-1.981 54.85-47.021 98.292-101.907 98.292h-56.552c.761 11.218 10.092 20 21.414 20h152.791c11.553 0 21.033-9.144 21.45-20.689l5.831-161.41c-7.14-1.741-13.409-3.699-27.515-3.699z" fill="#e7a52e"/><circle cx="198.541" cy="425.52" fill="#aa8080" r="19.153"/><circle cx="236.847" cy="425.52" fill="#aa8080" r="19.153"/><circle cx="275.153" cy="425.52" fill="#aa8080" r="19.153"/><path d="m267.475 443.072c2.35 1.03 4.947 1.601 7.678 1.601 10.578 0 19.153-8.575 19.153-19.153 0-1.768-.24-3.481-.689-5.106-7.35 8.959-16.193 16.636-26.142 22.658z" fill="#9d6b6b"/><circle cx="217.694" cy="458.601" fill="#aa8080" r="19.153"/><path d="m236.847 458.601c0-1.089-.091-2.156-.265-3.194-7.041 1.538-14.351 2.347-21.844 2.347h-16.178c-.012.281-.019.563-.019.847 0 10.578 8.575 19.153 19.153 19.153s19.153-8.575 19.153-19.153z" fill="#9d6b6b"/><circle cx="179.388" cy="458.601" fill="#aa8080" r="19.153"/><path d="m198.541 458.601c0-.284-.007-.566-.019-.847h-38.268c-.012.281-.019.563-.019.847 0 9.338 6.682 17.115 15.526 18.81 1.211.219 2.458.336 3.73.342 10.53-.055 19.05-8.608 19.05-19.152z" fill="#9d6b6b"/><circle cx="294.306" cy="458.601" fill="#9d6b6b" r="19.153"/><circle cx="256" cy="458.601" fill="#aa8080" r="19.153"/><path d="m275.153 458.601c0-6.338-3.078-11.956-7.822-15.443-9.222 5.561-19.39 9.702-30.198 12.126-.188 1.077-.286 2.186-.286 3.317 0 10.578 8.575 19.153 19.153 19.153s19.153-8.575 19.153-19.153z" fill="#9d6b6b"/><circle cx="217.694" cy="392.439" fill="#aa8080" r="19.153"/><circle cx="179.388" cy="392.439" fill="#aa8080" r="19.153"/><circle cx="294.306" cy="392.439" fill="#aa8080" r="19.153"/><g fill="#9d6b6b"><path d="m313.459 392.439c0-2.368-.43-4.635-1.216-6.728-2.703 8.822-6.566 17.127-11.41 24.74 7.364-2.67 12.626-9.727 12.626-18.012z"/><circle cx="313.459" cy="425.52" r="19.153"/><circle cx="332.612" cy="458.601" r="19.153"/><circle cx="332.612" cy="392.439" r="19.153"/></g><circle cx="256" cy="392.439" fill="#aa8080" r="19.153"/><path d="m320.871 504.5h-129.75c-4.62 0-8.531-3.41-9.16-7.986l-2.581-18.76h153.232l-2.581 18.76c-.629 4.576-4.54 7.986-9.16 7.986z" fill="#dae7ef"/><path d="m377.219 203.821h-242.438c-3.157 0-5.715-2.559-5.715-5.715v-27.741c0-3.157 2.559-5.715 5.715-5.715h242.439c3.157 0 5.715 2.559 5.715 5.715v27.741c0 3.156-2.559 5.715-5.716 5.715z" fill="#bcd0df"/><path d="m276.348 61.03h-40.703c-49.011 0-88.743 39.732-88.743 88.743v14.878h218.188v-14.878c0-49.012-39.731-88.743-88.742-88.743z" fill="#dae7ef"/><path d="m294.728 62.936c18.608 16.267 30.362 40.179 30.362 66.837 0 8.217-6.661 14.877-14.877 14.877h-163.166c-.096 1.695-.145 3.403-.145 5.122v14.878h218.188v-14.878c0-42.709-30.171-78.372-70.362-86.836z" fill="#c1d5e4"/><path d="m230.608 291.956c25.385 0 25.385 6.343 50.771 6.343 25.389 0 25.389-6.343 50.778-6.343 14.106 0 20.375 1.958 27.516 3.698l3.317-91.833h-213.988l3.279 90.769c7.157 1.743 13.422 3.709 27.555 3.709 25.386 0 25.386-6.343 50.772-6.343z" fill="#dae7ef"/><path d="m322.268 203.821-3.21 88.856c3.561-.442 7.771-.721 13.099-.721 14.107 0 20.375 1.958 27.516 3.698l3.317-91.833z" fill="#c1d5e4"/><path d="m240.212 203.821v88.497c13.548 1.117 18.018 4.502 31.568 5.619v-94.116z" fill="#dd636e"/><path d="m267.731 7.5h-23.47c-2.236 0-4.049 1.813-4.049 4.049v49.481h31.568v-49.481c0-2.236-1.813-4.049-4.049-4.049z" fill="#e28086"/><path d="m240.212 61.03h31.568v103.62h-31.568z" fill="#dd636e"/><path d="m240.212 144.65h31.568v20h-31.568z" fill="#d82e3d"/><path d="m358.161 337.482c4.152.115 7.616-3.085 7.766-7.225 2.322-64.244 1.035-28.63 4.297-118.937h6.996c7.287 0 13.215-5.929 13.215-13.216v-27.74c0-7.287-5.928-13.216-13.215-13.216h-4.629v-7.377c0-52.088-41.593-94.644-93.311-96.199v-42.023c0-6.368-5.181-11.549-11.549-11.549h-23.47c-6.368 0-11.549 5.181-11.549 11.549v42.025c-51.717 1.555-93.311 44.111-93.311 96.199v7.377h-4.621c-7.287 0-13.215 5.929-13.215 13.216v27.74c0 7.287 5.928 13.216 13.215 13.216h6.988l1.268 35.114c.146 4.048 3.473 7.229 7.49 7.229 4.254 0 7.653-3.525 7.5-7.771l-1.249-34.573h75.934v73.149c-.683-.009-1.384-.014-2.104-.014-13.616 0-20.524 1.726-27.204 3.396-6.067 1.516-11.798 2.947-23.568 2.947-9.637 0-15.225-.96-20.264-2.14l-.277-7.671c-.149-4.14-3.637-7.353-7.766-7.225-4.14.149-7.374 3.626-7.225 7.766.38 10.51 5.971 165.31 6.351 175.806.48 13.288 9.713 24.133 22.074 27.108l1.801 13.093c1.135 8.246 8.268 14.464 16.591 14.464h129.75c8.323 0 15.455-6.218 16.59-14.464l1.801-13.093c12.361-2.975 21.595-13.82 22.074-27.108l3.304-91.45c.149-4.14-3.085-7.616-7.224-7.766-4.123-.124-7.617 3.084-7.766 7.225l-.232 6.424c-10.687-8.705-26.288-7.846-35.959 2.155-10.488-10.845-27.81-10.853-38.306 0-10.488-10.845-27.81-10.853-38.306 0-10.488-10.845-27.81-10.853-38.306 0-9.663-9.992-25.27-10.869-35.967-2.148l-2.444-67.649c4.938.957 10.928 1.674 19.706 1.674 13.616 0 20.524-1.726 27.204-3.396 6.067-1.516 11.798-2.947 23.568-2.947s17.5 1.432 23.568 2.947c6.68 1.67 13.588 3.396 27.203 3.396 13.617 0 20.526-1.726 27.207-3.396 6.068-1.516 11.799-2.947 23.571-2.947 9.342 0 14.879.901 19.8 2.031l-1.02 28.229c-.148 4.138 3.086 7.616 7.225 7.765zm-37.29 159.518h-129.75c-.868 0-1.612-.648-1.73-1.509l-1.408-10.237h136.027l-1.408 10.237c-.119.861-.863 1.509-1.731 1.509zm26.218-60.767c-2.418-1.57-5.104-2.759-7.975-3.482 1.329-4.71 1.33-9.749 0-14.462 3.188-.802 6.15-2.181 8.768-4.017zm-174.204-17.944c-1.329 4.71-1.33 9.75 0 14.462-2.874.723-5.563 1.914-7.983 3.487l-.794-21.972c2.621 1.839 5.585 3.22 8.777 4.023zm184.705-268.517v7.377h-78.31v-44.31c0-4.143-3.358-7.5-7.5-7.5s-7.5 3.357-7.5 7.5v44.31h-16.568v-88.62h16.568v9.311c0 4.143 3.358 7.5 7.5 7.5s7.5-3.357 7.5-7.5v-9.258c43.444 1.549 78.31 37.374 78.31 81.19zm-93.31-134.772v38.529h-16.568v-38.529zm-109.879 134.772c0-43.816 34.866-79.642 78.311-81.191v88.568h-78.311zm-17.836 22.377h26.394v5.244c0 4.143 3.358 7.5 7.5 7.5s7.5-3.357 7.5-7.5v-5.244h27.769v5.244c0 4.143 3.358 7.5 7.5 7.5s7.5-3.357 7.5-7.5v-5.244h27.769v5.244c0 4.143 3.358 7.5 7.5 7.5s7.5-3.357 7.5-7.5v-5.244h27.769v5.244c0 4.143 3.358 7.5 7.5 7.5s7.5-3.357 7.5-7.5v-5.244h27.769v5.244c0 4.143 3.358 7.5 7.5 7.5s7.5-3.357 7.5-7.5v-5.244h26.402v24.172h-238.87v-24.172zm111.147 113.519v-74.347h16.568v78.023c-5.538-1.086-9.988-2.614-16.568-3.676zm84.445-1.212c-13.617 0-20.525 1.726-27.207 3.395-6.068 1.517-11.799 2.948-23.571 2.948-.722 0-1.421-.005-2.099-.016v-79.462h75.935l-2.707 74.936c-5.063-1.02-11.188-1.801-20.351-1.801zm-141.116 107.983c0 6.436-5.217 11.653-11.653 11.653s-11.653-5.217-11.653-11.653 5.217-11.653 11.653-11.653 11.653 5.217 11.653 11.653zm38.306 0c0 6.436-5.217 11.653-11.653 11.653s-11.653-5.217-11.653-11.653 5.217-11.653 11.653-11.653 11.653 5.217 11.653 11.653zm38.306 0c0 6.436-5.217 11.653-11.653 11.653s-11.653-5.217-11.653-11.653 5.217-11.653 11.653-11.653 11.653 5.217 11.653 11.653zm38.306 0c0 6.436-5.217 11.653-11.653 11.653s-11.653-5.217-11.653-11.653 5.217-11.653 11.653-11.653 11.653 5.217 11.653 11.653zm38.306 0c0 6.436-5.217 11.653-11.653 11.653s-11.653-5.217-11.653-11.653 5.217-11.653 11.653-11.653 11.653 5.217 11.653 11.653zm-153.224 66.162c0 6.436-5.217 11.653-11.653 11.653s-11.653-5.217-11.653-11.653 5.217-11.653 11.653-11.653 11.653 5.217 11.653 11.653zm38.306 0c0 6.436-5.217 11.653-11.653 11.653s-11.653-5.217-11.653-11.653 5.217-11.653 11.653-11.653 11.653 5.217 11.653 11.653zm38.306 0c0 6.436-5.217 11.653-11.653 11.653s-11.653-5.217-11.653-11.653 5.217-11.653 11.653-11.653 11.653 5.217 11.653 11.653zm38.306 0c0 6.436-5.217 11.653-11.653 11.653s-11.653-5.217-11.653-11.653 5.217-11.653 11.653-11.653 11.653 5.217 11.653 11.653zm38.306 0c0 6.436-5.217 11.653-11.653 11.653s-11.653-5.217-11.653-11.653 5.217-11.653 11.653-11.653 11.653 5.217 11.653 11.653zm-19.153-33.081c0 6.436-5.217 11.653-11.653 11.653s-11.653-5.217-11.653-11.653 5.217-11.653 11.653-11.653 11.653 5.217 11.653 11.653zm-38.306 0c0 6.436-5.217 11.653-11.653 11.653s-11.653-5.217-11.653-11.653 5.217-11.653 11.653-11.653 11.653 5.217 11.653 11.653zm-38.306 0c0 6.436-5.217 11.653-11.653 11.653s-11.653-5.217-11.653-11.653 5.217-11.653 11.653-11.653 11.653 5.217 11.653 11.653zm-38.306 0c0 6.436-5.217 11.653-11.653 11.653s-11.653-5.217-11.653-11.653 5.217-11.653 11.653-11.653 11.653 5.217 11.653 11.653z"/></g></svg>