<svg id="Flat" height="512" viewBox="0 0 512 512" width="512" xmlns="http://www.w3.org/2000/svg"><path d="m496 16v72l-8.12 5.40991a35.67728 35.67728 0 0 0 -15.88 29.68009 35.63331 35.63331 0 0 1 -8.27 22.82995l-5.62 6.74a115.45429 115.45429 0 0 1 -57.88 37.37005c-2.71.76-5.46 1.40991-8.23 1.97l-32-16-27.03 27.03a16.97056 16.97056 0 0 1 -24-24l-16 16a16.97056 16.97056 0 0 1 -24-24 16.97056 16.97056 0 0 1 -24-24l36.67-36.67a85.97734 85.97734 0 0 1 33.62-20.78l39.5-13.17005a86.08623 86.08623 0 0 1 27.2-4.40995 86.11887 86.11887 0 0 0 24.92-3.68994 86.29162 86.29162 0 0 0 22.79-10.76l62.33-41.55006z" fill="#f4ceaf"/><g fill="#f2c194"><path d="m268.9707 179.0293a8 8 0 0 1 -5.65674-13.65674l31.0293-31.0293a7.99984 7.99984 0 0 1 11.31348 11.31348l-31.0293 31.0293a7.97505 7.97505 0 0 1 -5.65674 2.34326z"/><path d="m308.9707 187.0293a8 8 0 0 1 -5.65674-13.65674l11.0293-11.0293a7.99984 7.99984 0 0 1 11.31348 11.31348l-11.0293 11.0293a7.97505 7.97505 0 0 1 -5.65674 2.34326z"/><path d="m348.9707 195.0293a8 8 0 0 1 -5.65674-13.65674l15.0293-15.0293a7.99984 7.99984 0 0 1 11.31348 11.31348l-15.0293 15.0293a7.97505 7.97505 0 0 1 -5.65674 2.34326z"/></g><path d="m456 368-27.15592-41.96824a205.872 205.872 0 0 0 -172.84397-94.03176h-.00022a205.872 205.872 0 0 0 -172.844 94.03176l-27.15589 41.96824 200 72z" fill="#eedc9a"/><path d="m192 288v24a64.02812 64.02812 0 0 1 -56 63.51 65.55245 65.55245 0 0 1 -16 0 63.59291 63.59291 0 0 1 -31.24-12.95 63.17886 63.17886 0 0 1 -11.32-11.32 63.65735 63.65735 0 0 1 -13.44-39.24 24 24 0 0 1 48 0 16 16 0 1 0 32 0v-24a24.002 24.002 0 0 1 24 24 24.002 24.002 0 0 1 24-24z" fill="#eebe33"/><path d="m136 325.86v49.65a65.55245 65.55245 0 0 1 -16 0v-49.65a15.98938 15.98938 0 0 0 16 0z" fill="#e88604"/><path d="m178.56 351.24a63.83991 63.83991 0 0 1 -11.32 11.32007l-31.24-31.24-3.86-3.86007a15.97741 15.97741 0 0 0 11.32-11.32z" fill="#e88604"/><path d="m123.86 327.46-3.86 3.86007-31.24 31.24a63.17886 63.17886 0 0 1 -11.32-11.32007l35.1-35.1a16.01858 16.01858 0 0 0 11.32 11.32z" fill="#e88604"/><path d="m320 288v24a64.02812 64.02812 0 0 1 -56 63.51 65.55245 65.55245 0 0 1 -16 0 63.59291 63.59291 0 0 1 -31.24-12.95 63.17886 63.17886 0 0 1 -11.32-11.32 63.65735 63.65735 0 0 1 -13.44-39.24 24 24 0 0 1 48 0 16 16 0 1 0 32 0v-24a24.002 24.002 0 0 1 24 24 24.002 24.002 0 0 1 24-24z" fill="#eebe33"/><path d="m264 325.86v49.65a65.55245 65.55245 0 0 1 -16 0v-49.65a15.98938 15.98938 0 0 0 16 0z" fill="#e88604"/><path d="m306.56 351.24a63.83991 63.83991 0 0 1 -11.32 11.32007l-31.24-31.24-3.86-3.86007a15.97741 15.97741 0 0 0 11.32-11.32z" fill="#e88604"/><path d="m251.86 327.46-3.86 3.86007-31.24 31.24a63.17886 63.17886 0 0 1 -11.32-11.32007l35.1-35.1a16.01858 16.01858 0 0 0 11.32 11.32z" fill="#e88604"/><path d="m448 288v24a64.02812 64.02812 0 0 1 -56 63.51 65.55245 65.55245 0 0 1 -16 0 63.59291 63.59291 0 0 1 -31.24-12.95 63.17886 63.17886 0 0 1 -11.32-11.32 63.65735 63.65735 0 0 1 -13.44-39.24 24 24 0 0 1 48 0 16 16 0 1 0 32 0v-24a24.002 24.002 0 0 1 24 24 24.002 24.002 0 0 1 24-24z" fill="#eebe33"/><path d="m392 325.86v49.65a65.55245 65.55245 0 0 1 -16 0v-49.65a15.98938 15.98938 0 0 0 16 0z" fill="#e88604"/><path d="m434.56 351.24a63.83991 63.83991 0 0 1 -11.32 11.32007l-31.24-31.24-3.86-3.86007a15.97741 15.97741 0 0 0 11.32-11.32z" fill="#e88604"/><path d="m379.86 327.46-3.86 3.86007-31.24 31.24a63.17886 63.17886 0 0 1 -11.32-11.32007l35.1-35.1a16.01858 16.01858 0 0 0 11.32 11.32z" fill="#e88604"/><path d="m366.55728 464h-221.11456a80 80 0 0 1 -71.55418-44.22291l-9.88854-19.77709h384l-9.88854 19.77709a80 80 0 0 1 -71.55418 44.22291z" fill="#379ec3"/><path d="m152 464h208v24h-208z" fill="#2d80b3"/><rect fill="#8acce7" height="32" rx="16" width="464" x="24" y="368"/><path d="m272 119.96227-9.389-15.02239a53.05 53.05 0 0 0 -76.81638-14.32357l-17.79462 13.34596 25.487 21.846a53.05006 53.05006 0 0 0 63.95141 3.86173z" fill="#4ba477"/><path d="m279.96245 120 21.946-12.54059a51.77452 51.77452 0 0 0 24.5413-57.51l-6.4873-25.94941-26.37363 16.48352a51.7745 51.7745 0 0 0 -20.14782 64.29968z" fill="#4ba477"/><path d="m288.84473 68.42236a160.17914 160.17914 0 0 0 -14.51273 44.33094 89.26057 89.26057 0 0 0 -52.27292-16.7533h-6.05908v16h6.05908a73.406 73.406 0 0 1 50.16431 19.6377c-.1405 2.71118-.22339 5.42517-.22339 8.13916v20.22314h16v-20.22314a144.288 144.288 0 0 1 15.15527-64.19922z" fill="#349966"/><path d="m400.23 190.03c-2.71.76-5.46 1.40991-8.23 1.97l-22.36-11.17993 6.36-21.79007a24.96063 24.96063 0 0 1 24.23 31z" fill="#f2c194"/><path d="m364 172-15.02945 15.02945a16.97054 16.97054 0 0 0 -4.97056 12 16.97054 16.97054 0 0 0 16.97056 16.97055 16.97054 16.97054 0 0 0 12-4.97056l15.02945-15.02944a16.97055 16.97055 0 0 0 0-24 16.97055 16.97055 0 0 0 -24 0z" fill="#f4ceaf"/><path d="m344 128-59.28428 19.76143a18.59641 18.59641 0 0 0 -12.71572 17.64211 18.59642 18.59642 0 0 0 18.59642 18.59646 95.48076 95.48076 0 0 0 26.289-3.69044l33.23875-9.51967a38.0209 38.0209 0 0 1 19.69357-.33544l.40334.10084a39.62565 39.62565 0 0 0 37.70311-10.44457c11.1331-11.16801 24.07581-24.11072 24.07581-24.11072v-8z" fill="#f2c194"/><path d="m344 120-59.28428 19.76143a18.59641 18.59641 0 0 0 -12.71572 17.64211 18.59642 18.59642 0 0 0 18.59642 18.59646 95.48076 95.48076 0 0 0 26.289-3.69044l33.23875-9.51967a38.0209 38.0209 0 0 1 19.69357-.33544l.40334.10084a39.62565 39.62565 0 0 0 37.70311-10.44457c11.1331-11.16801 24.07581-24.11072 24.07581-24.11072l8-24z" fill="#f4ceaf"/></svg>