<svg id="Layer_1" height="512" viewBox="0 0 512 512" width="512" xmlns="http://www.w3.org/2000/svg" data-name="Layer 1"><path d="m409.41 46h-339.54a16.439 16.439 0 0 0 -16.44 16.44v233.56h372.42v-233.56a16.439 16.439 0 0 0 -16.44-16.44z" fill="#73849b"/><path d="m83.43 62.44a16.439 16.439 0 0 1 16.44-16.44h-30a16.439 16.439 0 0 0 -16.44 16.44v223.88h30" fill="#91a6bc"/><path d="m105.84 272.86v57.54h242.46v-57.54z" fill="#d4e1f4"/><path d="m487.44 258.63h-135.58a13.55 13.55 0 0 0 -13.56 13.55v180.27a13.557 13.557 0 0 0 13.56 13.55h135.58a13.557 13.557 0 0 0 13.56-13.55v-180.27a13.55 13.55 0 0 0 -13.56-13.55z" fill="#6d7486"/><path d="m125.84 424.38v26.31a15.3 15.3 0 0 1 -15.31 15.31h-84.22a15.311 15.311 0 0 1 -15.31-15.31v-26.31z" fill="#6d7486"/><path d="m11 286.32h114.84v138.06h-114.84z" fill="#fb6771"/><path d="m110.53 257.37h-84.22a15.311 15.311 0 0 0 -15.31 15.31v13.64h114.84v-13.64a15.3 15.3 0 0 0 -15.31-15.31z" fill="#6d7486"/><path d="m358.64 280.99h122.02v149.09h-122.02z" fill="#88ced8"/><path d="m298.86 371.56a24.651 24.651 0 0 1 24.66 24.66h-172.66a24.651 24.651 0 0 1 24.67-24.66 16.439 16.439 0 0 0 16.44-16.44v-24.72h90.44v24.72a16.448 16.448 0 0 0 16.45 16.44z" fill="#bdcbdb"/><path d="m237.19 293.41a8.22 8.22 0 1 1 -8.22 8.22 8.228 8.228 0 0 1 8.22-8.22z" fill="#6d7486"/><path d="m11 286.32h30v138.06h-30z" fill="#ff99a3"/><path d="m56.31 257.37h-30a15.311 15.311 0 0 0 -15.31 15.31v13.64h30v-13.64a15.311 15.311 0 0 1 15.31-15.31z" fill="#b0b5ca"/><path d="m41 450.69v-26.31h-30v26.31a15.311 15.311 0 0 0 15.31 15.31h30a15.311 15.311 0 0 1 -15.31-15.31z" fill="#b0b5ca"/><path d="m358.64 280.99h30v149.09h-30z" fill="#adf2f7"/><path d="m230.885 377.559h-.391a6 6 0 1 1 0-12h.391a6 6 0 0 1 0 12z" fill="#b0b5ca"/><path d="m426.923 452.347h-14.541a6 6 0 0 1 0-12h14.541a6 6 0 0 1 0 12z" fill="#4a5160"/><path d="m68.422 453.082a8.87 8.87 0 1 1 8.871-8.87 8.88 8.88 0 0 1 -8.871 8.87z" fill="#4a5160"/><path d="m245.411 371.559a6 6 0 0 0 6 6h48.27a6 6 0 0 0 5.919-5.059 24.658 24.658 0 0 0 -6.74-.94 16.422 16.422 0 0 1 -12.706-6h-34.743a6 6 0 0 0 -6 5.999z" fill="#b0b5ca"/></svg>