<?xml version="1.0" encoding="iso-8859-1"?>
<!-- Generator: Adobe Illustrator 19.0.0, SVG Export Plug-In . SVG Version: 6.00 Build 0)  -->
<svg version="1.1" id="Capa_1" xmlns="http://www.w3.org/2000/svg" xmlns:xlink="http://www.w3.org/1999/xlink" x="0px" y="0px"
	 viewBox="0 0 512.001 512.001" style="enable-background:new 0 0 512.001 512.001;" xml:space="preserve">
<g>
	<g>
		<g>
			<path d="M256,341.334c12.221,0,29.409-33.047,31.573-85.333h-63.146C226.591,308.287,243.779,341.334,256,341.334z"/>
			<path d="M161.078,234.667h41.807c1.181-29.056,7.182-57.952,17.599-78.342C188.315,169.209,165.09,199.004,161.078,234.667z"/>
			<path d="M291.516,156.325c10.417,20.391,16.418,49.286,17.599,78.342h41.807C346.91,199.004,323.685,169.209,291.516,156.325z"/>
			<path d="M256,149.334c-12.221,0-29.409,33.047-31.573,85.333h63.146C285.409,182.381,268.222,149.334,256,149.334z"/>
			<path d="M161.078,256.001c4.012,35.663,27.237,65.458,59.406,78.342c-10.417-20.391-16.418-49.286-17.599-78.342H161.078z"/>
			<path d="M405.334,64.001H384V41.932c0-26.637-25.125-47.461-52.198-40.617L104.233,64.247C81.853,65.538,64,83.969,64,106.667
				v362.667C64,492.865,83.136,512,106.667,512h298.667C428.865,512,448,492.865,448,469.334V106.667
				C448,83.136,428.865,64.001,405.334,64.001z M337.281,21.93c12.448-3.177,25.385,6.906,25.385,20.001v22.069H185.164
				L337.281,21.93z M309.334,448.001H192c-5.896,0-10.667-4.771-10.667-10.667c0-5.896,4.771-10.667,10.667-10.667h117.333
				c5.896,0,10.667,4.771,10.667,10.667C320,443.23,315.229,448.001,309.334,448.001z M352,405.344H149.334
				c-5.896,0-10.667-4.771-10.667-10.667c0-5.896,4.771-10.667,10.667-10.667H352c5.896,0,10.667,4.771,10.667,10.667
				C362.667,400.573,357.896,405.344,352,405.344z M256,362.667c-64.698,0-117.333-52.635-117.333-117.333
				S191.302,128.001,256,128.001s117.333,52.635,117.333,117.333S320.698,362.667,256,362.667z"/>
			<path d="M291.516,334.343c32.169-12.884,55.395-42.68,59.406-78.342h-41.807C307.934,285.057,301.933,313.952,291.516,334.343z"
				/>
		</g>
	</g>
</g>
<g>
</g>
<g>
</g>
<g>
</g>
<g>
</g>
<g>
</g>
<g>
</g>
<g>
</g>
<g>
</g>
<g>
</g>
<g>
</g>
<g>
</g>
<g>
</g>
<g>
</g>
<g>
</g>
<g>
</g>
</svg>
