<svg height="512" viewBox="0 0 512 512" width="512" xmlns="http://www.w3.org/2000/svg"><g id="flat"><path d="m48 440h344a0 0 0 0 1 0 0v48a0 0 0 0 1 0 0h-344a24 24 0 0 1 -24-24 24 24 0 0 1 24-24z" fill="#0296e5"/><g fill="#cbcbcb"><circle cx="48" cy="464" r="24"/><circle cx="304" cy="464" r="24"/><circle cx="176" cy="464" r="24"/><path d="m264 408 8 32 64-16-8-24h-32z"/></g><path d="m112 392 72-48 27.121-63.283-27.121-40.717-24 72-64 56z" fill="#d8595a"/><path d="m96 368-24 8-8 16 24 40 24-8v-32z" fill="#cbcbcb"/><path d="m262 181 24 3-5 24h-22l-27-16v-48z" fill="#fdc9a6"/><path d="m243 157.57-4.57 5.09v33.15l-6.43-3.81v-32l5.85-8.78z" fill="#fdc9a6"/><path d="m240 40v34a6 6 0 0 1 -6 6h-10v16h-32v-56l16-16h10.4a22 22 0 0 1 19.678 12.161z" fill="#fdc9a6"/><path d="m208 24-16 16v16l-8 5.33v-21.33l16-16z" fill="#ea9d2d"/><path d="m488 488h-96v-48l40-48h32l24 32z" fill="#026ca2"/><path d="m408 224h-40l64 64v104h32v-112z" fill="#0296e5"/><path d="m416 232h-40l-8-8h40z" fill="#0296e5"/><path d="m336 192v32h120l32-72-32-8-24 48z" fill="#0296e5"/><path d="m48 496a32 32 0 1 1 32-32 32.036 32.036 0 0 1 -32 32zm0-48a16 16 0 1 0 16 16 16.019 16.019 0 0 0 -16-16z" fill="#026ca2"/><path d="m304 496a32 32 0 1 1 32-32 32.036 32.036 0 0 1 -32 32zm0-48a16 16 0 1 0 16 16 16.019 16.019 0 0 0 -16-16z" fill="#026ca2"/><path d="m176 496a32 32 0 1 1 32-32 32.036 32.036 0 0 1 -32 32zm0-48a16 16 0 1 0 16 16 16.019 16.019 0 0 0 -16-16z" fill="#026ca2"/><path d="m208 24h-15.029a40.971 40.971 0 0 0 -28.971 12 40.971 40.971 0 0 1 -28.971 12h-23.029l12 12a40.971 40.971 0 0 0 28.971 12h2.629a40.966 40.966 0 0 0 22.726-6.881l13.674-9.119v-16z" fill="#fbb540"/><path d="m216 24-16.385 8.385a26 26 0 0 0 -7.615 18.385v5.23l-8 5.33v-10.56a26 26 0 0 1 7.615-18.385l3.868-2.849a28.42 28.42 0 0 1 16.853-5.536z" fill="#ea9d2d"/><path d="m184 176h48v32h-48z" fill="#fdc9a6"/><path d="m208 184-8 24h-16v-32z" fill="#fdc9a6"/><path d="m232 176v-16l8.277-12.416a22 22 0 0 0 .56-23.522l-16.837-28.062h-40v80z" fill="#ff6268"/><path d="m208 184-8 24h-16v-32z" fill="#f6bb92"/><path d="m184 208a61.076 61.076 0 0 0 3.314 46.627l4.686 9.373 40 56 5.435 21.739a131.972 131.972 0 0 0 6.731 19.983l19.834 46.278 32-8-24-88-40-80v-24z" fill="#ff6268"/><path d="m169.373 102.627-35.515 35.515a20 20 0 0 0 -5.858 14.142v.475a20 20 0 0 0 4.636 12.8l35.364 42.441h24l8-24-24-8-16-24 16-16 8 8 24-8v-17.373a22.628 22.628 0 0 0 -22.627-22.627 22.627 22.627 0 0 0 -16 6.627z" fill="#fdc9a6"/><path d="m243 157.57-4.57 5.09v33.15l-6.43-3.81v-32l5.85-8.78z" fill="#f6bb92"/><path d="m224 80-16-16 8 16z" fill="#f6bb92"/><path d="m416 232h-40l-8-8h40z" fill="#026ca2"/><path d="m192 64h16l8-16 24-8-1.919-3.839a22 22 0 0 0 -19.681-12.161 25.115 25.115 0 0 0 -17.759 7.356l-1.029 1.029a26 26 0 0 0 -7.612 18.385z" fill="#fbb540"/></g></svg>